<svg width="40" height="40" viewBox="0 0 40 40" fill="none" xmlns="http://www.w3.org/2000/svg">
<g opacity="0.5" clip-path="url(#clip0)">
<path d="M19.9219 8.55225C18.642 8.55225 17.6047 9.58984 17.6047 10.8698C17.6047 12.1494 18.642 13.187 19.9219 13.187C21.2018 13.187 22.2391 12.1494 22.2391 10.8698C22.2391 9.58984 21.2018 8.55225 19.9219 8.55225ZM19.9219 12.0142C19.2899 12.0142 18.7775 11.5018 18.7775 10.8698C18.7775 10.2377 19.2899 9.72534 19.9219 9.72534C20.5539 9.72534 21.0663 10.2377 21.0663 10.8698C21.0663 11.5018 20.5539 12.0142 19.9219 12.0142Z" fill="black"/>
<path d="M26.5781 29.7399C26.5763 29.7308 26.5741 29.7216 26.5717 29.7125L24.6344 21.3641C24.6332 21.3574 24.6317 21.3506 24.6299 21.3439L23.5105 16.5197C23.7229 16.3851 23.9279 16.2383 24.1245 16.0793C25.2915 15.137 26.1164 13.8171 26.4478 12.3626C26.5198 12.0471 26.3224 11.7327 26.0065 11.6607C25.6909 11.5887 25.3769 11.7864 25.3049 12.102C25.0318 13.301 24.3509 14.3896 23.3878 15.1675C23.1375 15.3695 22.8739 15.5474 22.5992 15.7009C22.5864 15.7067 22.5739 15.7128 22.5617 15.7195C21.7853 16.1431 20.9085 16.3738 20.0196 16.3897C19.9567 16.3906 19.8938 16.3906 19.8313 16.3897C19.2896 16.3809 18.7525 16.2921 18.2398 16.1285C16.0153 15.4156 14.401 13.3276 14.401 10.8694C14.401 7.82526 16.8775 5.34845 19.9219 5.34845C21.1975 5.34845 22.3954 5.77112 23.386 6.57037C24.3488 7.34705 25.0296 8.43469 25.3037 9.63251C25.376 9.94806 25.6906 10.1452 26.0059 10.0732C26.3214 10.0012 26.5189 9.68683 26.4466 9.37128C26.1142 7.91803 25.2887 6.59937 24.1223 5.6582C22.938 4.7027 21.4463 4.17627 19.9219 4.17627C16.2311 4.17627 13.2285 7.17889 13.2285 10.8697C13.2285 13.2412 14.4684 15.3286 16.3339 16.5179L15.2146 21.3412C15.2124 21.3494 15.2106 21.358 15.2088 21.3662L14.6872 23.6141C14.614 23.9294 14.8102 24.2443 15.1258 24.3176C15.441 24.3908 15.7559 24.1943 15.8292 23.879L16.2482 22.0733H23.5956L25.2664 29.273H14.5774L15.1944 26.614C15.2677 26.2988 15.0714 25.9838 14.7559 25.9106C14.4403 25.8373 14.1257 26.0339 14.0524 26.3491L13.3051 29.5696C13.2565 29.6551 13.2285 29.754 13.2285 29.8593C13.2285 29.8712 13.2291 29.8831 13.2297 29.8947L11.2885 38.2601C11.1936 38.6688 11.2891 39.0917 11.55 39.4201C11.8109 39.7485 12.2012 39.9371 12.6209 39.9371H19.7476C20.0714 39.9371 20.3336 39.6746 20.3336 39.3508C20.3336 39.027 20.0714 38.7646 19.7476 38.7646H12.6209C12.5388 38.7646 12.4899 38.7185 12.468 38.6907C12.446 38.6633 12.4121 38.605 12.4304 38.525L14.3054 30.4455H25.5384L27.4134 38.525C27.432 38.605 27.3981 38.6633 27.3758 38.6907C27.3542 38.7185 27.305 38.7646 27.2229 38.7646H22.4829C22.1591 38.7646 21.8967 39.027 21.8967 39.3508C21.8967 39.6746 22.1591 39.9371 22.4829 39.9371H27.2229C27.6425 39.9371 28.0329 39.7485 28.2938 39.4201C28.5547 39.0914 28.6502 38.6688 28.5553 38.2601L26.5781 29.7399ZM16.5201 20.9011L17.4085 17.0739C17.5241 17.1206 17.6413 17.1642 17.7594 17.2045C18.4015 17.4243 19.0875 17.5491 19.8001 17.5619C19.9134 17.5634 20.0266 17.5631 20.1398 17.5594C20.9287 17.5335 21.7078 17.3681 22.4356 17.0739L23.3237 20.9011H16.5201Z" fill="black"/>
<path d="M11.2747 12.7174C9.95881 11.3682 9.96613 9.16542 11.2906 7.80739C11.5167 7.57546 11.5118 7.20436 11.2802 6.97853C11.0483 6.7524 10.6772 6.75728 10.4514 6.98891C8.68653 8.79829 8.67951 11.7353 10.4355 13.5358C10.5502 13.6536 10.7025 13.7128 10.8551 13.7128C11.0028 13.7128 11.1505 13.6573 11.2643 13.5462C11.496 13.3201 11.5006 12.949 11.2747 12.7174Z" fill="black"/>
<path d="M7.86071 3.47205C7.62878 3.24592 7.25769 3.2505 7.03186 3.48243C3.37066 7.2364 3.35479 13.3283 6.99615 17.0621C7.1112 17.1799 7.26348 17.2391 7.41607 17.2391C7.56347 17.2391 7.71118 17.1839 7.82531 17.0725C8.05694 16.8467 8.06152 16.4756 7.83569 16.244C4.63409 12.9612 4.65026 7.60352 7.87078 4.30091C8.09692 4.06928 8.09234 3.69819 7.86071 3.47205Z" fill="black"/>
<path d="M4.79981 1.15174C5.02595 0.919808 5.02137 0.548714 4.78943 0.322884C4.5575 0.0967483 4.18641 0.101326 3.96058 0.33326C-1.4035 5.83375 -1.4273 14.7589 3.90748 20.2295C4.02253 20.347 4.17481 20.4062 4.32709 20.4062C4.4748 20.4062 4.6225 20.351 4.73633 20.2399C4.96827 20.0137 4.97284 19.6426 4.74671 19.411C-0.148004 14.3918 -0.1242 6.20087 4.79981 1.15174Z" fill="black"/>
<path d="M28.5794 7.01652C28.3478 7.24235 28.3432 7.61345 28.569 7.84508C29.885 9.19456 29.8776 11.397 28.5532 12.755C28.327 12.9867 28.3319 13.3578 28.5636 13.5839C28.6777 13.695 28.8254 13.7502 28.9728 13.7502C29.1254 13.7502 29.2777 13.6913 29.3924 13.5735C31.1572 11.7641 31.1643 8.82713 29.4083 7.02659C29.1825 6.79497 28.8114 6.79039 28.5794 7.01652Z" fill="black"/>
<path d="M32.8476 3.5005C32.6215 3.26856 32.2504 3.26398 32.0187 3.49012C31.7868 3.71595 31.7822 4.08704 32.0084 4.31898C35.2097 7.60145 35.1938 12.9591 31.973 16.2617C31.7468 16.4937 31.7514 16.8648 31.9833 17.0906C32.0972 17.202 32.2449 17.2572 32.3923 17.2572C32.5449 17.2572 32.6972 17.198 32.8122 17.0802C36.4731 13.3262 36.489 7.23432 32.8476 3.5005Z" fill="black"/>
<path d="M35.9363 0.333391C35.7102 0.101763 35.3391 0.09688 35.1074 0.323015C34.8755 0.548845 34.8709 0.919939 35.0971 1.15187C39.9918 6.17079 39.968 14.362 35.044 19.4108C34.8178 19.6428 34.8227 20.0139 35.0543 20.2397C35.1685 20.3511 35.3162 20.4063 35.4636 20.4063C35.6162 20.4063 35.7685 20.3471 35.8832 20.2293C41.2473 14.7291 41.2711 5.80367 35.9363 0.333391Z" fill="black"/>
</g>
<defs>
<clipPath id="clip0">
<rect width="40" height="40" fill="white"/>
</clipPath>
</defs>
</svg>
