<svg width="39" height="39" viewBox="0 0 39 39" fill="none" xmlns="http://www.w3.org/2000/svg">
<g opacity="0.5">
<path d="M35.75 22.1001C36.1094 22.1001 36.4 21.8089 36.4 21.4501V18.8501C36.4 18.4914 36.1094 18.2002 35.75 18.2002H32.4999V17.5501C32.4999 17.1914 32.2094 16.9001 31.85 16.9001C31.4905 16.9001 31.2 17.1914 31.2 17.5501V18.2001H13V17.5501C13 17.1914 12.7088 16.9001 12.35 16.9001C11.9913 16.9001 11.7001 17.1914 11.7001 17.5501V18.2001H8.45005C8.09128 18.2001 7.80007 18.4913 7.80007 18.8501V21.4501C7.80007 21.8089 8.09128 22.1001 8.45005 22.1001H12.35H31.8501H35.75ZM9.10002 20.8001V19.5001H35.1V20.8001H9.10002Z" fill="black"/>
<path d="M23.4 14.3C22.349 14.3 21.6697 15.0989 21.5956 15.1906C21.3706 15.4668 21.4123 15.8705 21.6872 16.098C21.9628 16.3261 22.3704 16.2865 22.6011 16.0148C22.6037 16.0103 22.956 15.6001 23.3999 15.6001C23.8438 15.6001 24.1955 16.0103 24.1955 16.0103C24.3243 16.1683 24.5114 16.2502 24.7005 16.2502C24.8448 16.2502 24.9892 16.2027 25.11 16.1046C25.3889 15.8784 25.4305 15.4689 25.2043 15.1907C25.1303 15.0989 24.451 14.3 23.4 14.3Z" fill="black"/>
<path d="M35.75 27.3C36.1094 27.3 36.4 27.0088 36.4 26.65V24.05C36.4 23.6913 36.1094 23.4 35.75 23.4H32.4999V22.7501C32.4999 22.3913 32.2094 22.1001 31.85 22.1001C31.4905 22.1001 31.2 22.3913 31.2 22.7501V23.4H13V22.7501C13 22.3913 12.7088 22.1001 12.35 22.1001C11.9913 22.1001 11.7001 22.3913 11.7001 22.7501V23.4H8.45005C8.09128 23.4 7.80007 23.6913 7.80007 24.05V26.65C7.80007 27.0088 8.09128 27.3 8.45005 27.3H12.35H31.8501H35.75ZM9.10002 25.9999V24.6999H35.1V25.9999H9.10002Z" fill="black"/>
<path d="M26.7956 12.7596C26.9243 12.9182 27.1115 13 27.3006 13C27.4449 13 27.5892 12.9526 27.7101 12.8545C27.989 12.6283 28.0306 12.2188 27.8043 11.9406C27.7302 11.8489 27.051 11.05 25.9999 11.05C24.9488 11.05 24.2696 11.8489 24.1955 11.9406C23.9705 12.2169 24.0122 12.6205 24.2871 12.848C24.5627 13.0768 24.9703 13.0365 25.2003 12.7648C25.2036 12.7603 25.5559 12.3502 25.9998 12.3502C26.444 12.3501 26.7956 12.7596 26.7956 12.7596Z" fill="black"/>
<path d="M0.65323 8.51503C0.686365 8.84721 0.965916 9.10003 1.30001 9.10003H5.20001C5.5341 9.10003 5.81357 8.84721 5.84678 8.51503L6.49676 2.01505C6.51496 1.83178 6.45517 1.65042 6.33169 1.51392C6.20883 1.37803 6.03401 1.3001 5.85006 1.3001H3.89998V0.649975C3.89998 0.291205 3.60878 0 3.25001 0C2.89124 0 2.60003 0.291205 2.60003 0.649975V1.29995H0.650031C0.466076 1.29995 0.291262 1.37795 0.168396 1.51376C0.0449218 1.65026 -0.0148731 1.83163 0.00333198 2.0149L0.65323 8.51503ZM5.13176 2.59998L4.61173 7.8H1.88821L1.36818 2.59998H5.13176Z" fill="black"/>
<path d="M18.2 14.95C18.2 15.6767 18.497 16.3527 19.0365 16.8526C19.1613 16.9683 19.3199 17.0261 19.4785 17.0261C19.6527 17.0261 19.8269 16.9559 19.955 16.8181C20.1987 16.5548 20.1838 16.1433 19.9205 15.899C19.6488 15.6481 19.5 15.3107 19.5 14.9499C19.5 14.4117 19.8425 13.9236 20.3534 13.7358C20.5653 13.6578 20.7213 13.4751 20.7655 13.2534C20.8104 13.0318 20.7356 12.803 20.5705 12.6489C20.2988 12.398 20.15 12.0607 20.15 11.6999C20.15 11.0239 20.6823 10.4584 21.3616 10.4116C21.6112 10.3947 21.8283 10.2368 21.9212 10.0047C22.0135 9.7727 21.9654 9.50815 21.7964 9.3242C21.5729 9.08045 21.45 8.76974 21.45 8.44997C21.45 7.77395 21.9824 7.20845 22.6616 7.16168C22.9112 7.14477 23.1283 6.98687 23.2212 6.75477C23.3135 6.52275 23.2654 6.25821 23.0964 6.07425C22.8735 5.8305 22.75 5.51979 22.75 5.20003C22.75 4.61891 23.1459 4.10604 23.712 3.95271C23.8921 3.90396 24.0415 3.7811 24.1241 3.61535C24.2073 3.4496 24.2151 3.25528 24.1456 3.08367C24.0825 2.92439 24.05 2.76192 24.05 2.60005C24.05 1.88312 24.6331 1.30003 25.3501 1.30003C26.067 1.30003 26.6501 1.88304 26.6501 2.60005C26.6501 2.76192 26.6176 2.92439 26.5546 3.08367C26.485 3.25528 26.4928 3.4496 26.5761 3.61535C26.6586 3.7811 26.8081 3.90396 26.9881 3.95271C27.5543 4.10612 27.9501 4.61899 27.9501 5.20003C27.9501 5.51979 27.8266 5.8305 27.6037 6.07425C27.4347 6.25821 27.3866 6.52275 27.4789 6.75477C27.5718 6.98679 27.7889 7.14477 28.0386 7.16168C28.7178 7.20845 29.2501 7.77395 29.2501 8.44997C29.2501 8.76974 29.1267 9.08045 28.9037 9.3242C28.7347 9.50815 28.6866 9.7727 28.7789 10.0047C28.8719 10.2367 29.089 10.3947 29.3386 10.4116C30.0178 10.4584 30.5502 11.0239 30.5502 11.6999C30.5502 12.0607 30.4013 12.398 30.1296 12.6489C29.9646 12.803 29.8898 13.0318 29.9346 13.2534C29.9788 13.4751 30.1348 13.6578 30.3474 13.7358C30.8577 13.9236 31.2002 14.4118 31.2002 14.9499C31.2002 15.3087 31.4907 15.5999 31.8502 15.5999C32.2097 15.5999 32.5002 15.3087 32.5002 14.9499C32.5002 14.1582 32.1329 13.4218 31.5356 12.9369C31.741 12.5618 31.8502 12.14 31.8502 11.6999C31.8502 10.6833 31.2522 9.79022 30.3799 9.36769C30.4917 9.07649 30.5502 8.76578 30.5502 8.4499C30.5502 7.43331 29.9522 6.54019 29.08 6.11767C29.1918 5.82646 29.2503 5.51576 29.2503 5.19987C29.2503 4.25214 28.729 3.39612 27.9269 2.94305C27.9425 2.82933 27.9503 2.71492 27.9503 2.59982C27.95 1.16612 26.7839 0 25.35 0C23.9161 0 22.75 1.16612 22.75 2.59997C22.75 2.71499 22.7578 2.8294 22.7734 2.94321C21.9713 3.39628 21.45 4.25229 21.45 5.20003C21.45 5.51591 21.5085 5.82662 21.6203 6.11782C20.748 6.54035 20.15 7.43338 20.15 8.45005C20.15 8.76593 20.2085 9.07664 20.3204 9.36785C19.448 9.79037 18.8501 10.6834 18.8501 11.7001C18.8501 12.1401 18.9593 12.562 19.1647 12.937C18.5673 13.4219 18.2 14.1583 18.2 14.95Z" fill="black"/>
<path d="M24.4524 9.04881C24.7826 9.18531 25.1628 9.02801 25.3013 8.69781C25.3137 8.66658 25.3319 8.63215 25.3501 8.59833C25.3683 8.63085 25.3852 8.6646 25.3975 8.69514C25.5002 8.94735 25.7434 9.10076 26.0001 9.10076C26.0819 9.10076 26.1645 9.08514 26.2444 9.05201C26.5772 8.91749 26.7378 8.53785 26.6026 8.20574C26.5304 8.02955 26.134 7.15015 25.35 7.15015C24.5661 7.15015 24.1696 8.02963 24.0974 8.20574C23.9629 8.53655 24.1222 8.91231 24.4524 9.04881Z" fill="black"/>
<path d="M38.35 37.7H27.95C27.5905 37.7 27.3 37.9912 27.3 38.3499C27.3 38.7087 27.5905 38.9999 27.95 38.9999H38.3499C38.7094 38.9999 38.9999 38.7087 38.9999 38.3499C38.9999 37.9912 38.7095 37.7 38.35 37.7Z" fill="black"/>
<path d="M38.35 28.6002H32.5V27.9503C32.5 27.5915 32.2095 27.3003 31.85 27.3003C31.4906 27.3003 31.2001 27.5915 31.2001 27.9503V28.6002H13V27.9503C13 27.5915 12.7088 27.3003 12.3501 27.3003C11.9913 27.3003 11.7001 27.5915 11.7001 27.9503V28.6002H5.85C5.49123 28.6002 5.20003 28.8914 5.20003 29.2502V31.8502C5.20003 32.209 5.49123 32.5002 5.85 32.5002H7.8V35.7502C7.8 36.109 8.09121 36.4002 8.44998 36.4002C8.80875 36.4002 9.09995 36.109 9.09995 35.7502V32.5002H35.1V35.7502C35.1 36.109 35.3905 36.4002 35.75 36.4002C36.1094 36.4002 36.3999 36.109 36.3999 35.7502V32.5002H38.3499C38.7094 32.5002 38.9999 32.209 38.9999 31.8502V29.2502C39 28.8914 38.7095 28.6002 38.35 28.6002ZM37.7 31.2002H6.49998V29.9002H37.7V31.2002Z" fill="black"/>
<path d="M9.74999 37.7001H3.89999V11.0501C3.89999 10.6914 3.60879 10.4001 3.25002 10.4001C2.89125 10.4001 2.60004 10.6914 2.60004 11.0501V37.7001H0.650043C0.291274 37.7001 6.86646e-05 37.9914 6.86646e-05 38.3501C6.86646e-05 38.7089 0.291198 39.0001 0.649967 39.0001H9.74999C10.1088 39.0001 10.4 38.7089 10.4 38.3501C10.4 37.9914 10.1088 37.7001 9.74999 37.7001Z" fill="black"/>
<path d="M25.35 37.7H24.05C23.6905 37.7 23.4 37.9912 23.4 38.3499C23.4 38.7087 23.6905 38.9999 24.05 38.9999H25.35C25.7094 38.9999 26 38.7087 26 38.3499C26 37.9912 25.7094 37.7 25.35 37.7Z" fill="black"/>
<path d="M20.15 37.7H13.65C13.2912 37.7 13 37.9912 13 38.3499C13 38.7087 13.2912 39 13.65 39H20.15C20.5094 39 20.7999 38.7088 20.7999 38.35C20.7999 37.9912 20.5094 37.7 20.15 37.7Z" fill="black"/>
</g>
</svg>
