<svg width="175" height="109" viewBox="0 0 175 109" fill="none" xmlns="http://www.w3.org/2000/svg">
<path d="M86.1 82.764V106H5.44V87.648L44.216 51.388C47.9653 47.836 50.4813 44.8267 51.764 42.36C53.0467 39.7947 53.688 37.2293 53.688 34.664C53.688 31.3093 52.5533 28.6947 50.284 26.82C48.0147 24.9453 44.7093 24.008 40.368 24.008C36.52 24.008 32.968 24.896 29.712 26.672C26.5547 28.3493 23.94 30.816 21.868 34.072L0.112 21.936C4.15733 15.2267 9.83067 9.948 17.132 6.1C24.4333 2.25199 33.0667 0.327993 43.032 0.327993C50.9253 0.327993 57.8813 1.61066 63.9 4.176C70.0173 6.74133 74.7533 10.4413 78.108 15.276C81.5613 20.012 83.288 25.5373 83.288 31.852C83.288 37.476 82.0547 42.804 79.588 47.836C77.22 52.7693 72.5827 58.3933 65.676 64.708L46.14 82.764H86.1ZM147.762 43.84C156.346 45.616 162.907 49.168 167.446 54.496C172.083 59.7253 174.402 66.0893 174.402 73.588C174.402 79.7053 172.724 85.3787 169.37 90.608C166.114 95.8373 161.082 100.08 154.274 103.336C147.564 106.493 139.227 108.072 129.262 108.072C121.96 108.072 114.708 107.184 107.506 105.408C100.402 103.632 94.235 101.116 89.0057 97.86L99.6617 75.808C103.707 78.5707 108.246 80.692 113.278 82.172C118.408 83.652 123.44 84.392 128.374 84.392C133.406 84.392 137.402 83.4547 140.362 81.58C143.322 79.7053 144.802 77.0413 144.802 73.588C144.802 66.8787 139.523 63.524 128.966 63.524H116.682V45.024L135.182 25.044H94.3337V2.39999H169.222V20.752L147.762 43.84Z" fill="#6BC067"/>
</svg>
