<svg width="46" height="46" viewBox="0 0 46 46" fill="none" xmlns="http://www.w3.org/2000/svg">
<g opacity="0.5" clip-path="url(#clip0)">
<path d="M44.3655 10.3958H41.1761C40.8139 10.3958 40.5203 10.6894 40.5203 11.0516C40.5203 11.4139 40.8139 11.7075 41.1761 11.7075H44.3655C44.5436 11.7075 44.6884 11.8521 44.6884 12.03V18.91H34.511V17.1734C34.511 16.906 34.352 16.6656 34.1061 16.5607C33.8602 16.4556 33.5768 16.5079 33.3837 16.6931L13.5669 35.7352H5.73832V32.3556C5.73832 31.9934 5.44471 31.6998 5.08246 31.6998C4.72021 31.6998 4.42661 31.9934 4.42661 32.3556V35.8463C4.42661 36.5083 4.96522 37.0468 5.62719 37.0468H13.6115C13.9233 37.0468 14.2188 36.9279 14.4434 36.7119L33.1992 18.6892V18.9212C33.1992 19.6382 33.7826 20.2214 34.4996 20.2214H44.6996C45.4167 20.2214 46 19.6382 46 18.9212V12.0298C46 11.1289 45.2667 10.3958 44.3655 10.3958Z" fill="black"/>
<path d="M38.0535 10.3953H34.1452C33.8283 10.3953 33.5203 10.4865 33.2514 10.6613L14.4781 23.0184V18.4937C14.4781 17.0617 13.3128 15.8967 11.8806 15.8967H11.7181V14.3817H11.7843C12.298 14.3817 12.7215 13.989 12.7709 13.488L16.4548 13.8877C16.5356 13.8965 16.6175 13.9009 16.6983 13.9009C17.9284 13.9009 18.9292 12.8988 18.9292 11.6672C18.9292 10.4356 17.9284 9.43363 16.6983 9.43363C16.6175 9.43363 16.5356 9.43804 16.4548 9.44684L12.7709 9.84656C12.7216 9.34559 12.298 8.95288 11.7843 8.95288H7.14482C6.6311 8.95288 6.20748 9.34559 6.15816 9.84656L2.4743 9.44684C2.39353 9.43804 2.31159 9.43363 2.23082 9.43363C1.00077 9.43363 0 10.4358 0 11.6673C0 12.8989 1.00077 13.9009 2.23082 13.9009C2.31159 13.9009 2.39353 13.8965 2.4743 13.8877L6.15816 13.488C6.20757 13.9889 6.63119 14.3817 7.14482 14.3817H7.21095V15.8967H7.02416C5.59187 15.8967 4.4266 17.0616 4.4266 18.4937V29.2283C4.4266 29.5905 4.72021 29.8841 5.08246 29.8841C5.44471 29.8841 5.73832 29.5905 5.73832 29.2283V18.4936C5.73832 17.7849 6.31512 17.2084 7.02425 17.2084H11.8806C12.5896 17.2084 13.1664 17.785 13.1664 18.4936V24.235C13.1664 24.4762 13.2988 24.6979 13.5111 24.8124C13.7235 24.9267 13.9814 24.9155 14.1828 24.7828L33.9693 11.7591C34.0217 11.7251 34.0825 11.707 34.1452 11.707H38.0535C38.4157 11.707 38.7094 11.4134 38.7094 11.0512C38.7094 10.6889 38.4157 10.3953 38.0535 10.3953ZM16.5962 10.7507C16.6302 10.7471 16.6645 10.7452 16.6983 10.7452C17.2052 10.7452 17.6175 11.1588 17.6175 11.6672C17.6175 12.1756 17.2052 12.5892 16.6983 12.5892C16.6646 12.5892 16.6302 12.5873 16.5963 12.5836L12.776 12.169V11.1654H12.7759L16.5962 10.7507ZM2.33288 12.5838C2.29892 12.5875 2.2646 12.5894 2.23082 12.5894C1.72401 12.5894 1.31163 12.1758 1.31163 11.6673C1.31163 11.159 1.72401 10.7454 2.23082 10.7454C2.26451 10.7454 2.29892 10.7472 2.33279 10.7509L6.15313 11.1656V12.1692H6.15322L2.33288 12.5838ZM10.4065 15.8859H8.52267V14.3817H10.4065V15.8859ZM11.4642 10.5769V12.7578V13.0701H11.0623H7.86681H7.46485V12.7578V10.5769V10.2646H11.4642V10.5769Z" fill="black"/>
<path d="M42.3605 25.9625C41.8324 25.0479 41.2861 24.1022 40.961 23.3129C40.8014 22.9258 40.4277 22.6755 40.009 22.6755C39.5904 22.6755 39.2167 22.9258 39.0571 23.3131C38.732 24.1023 38.1857 25.048 37.6576 25.9626C36.7209 27.5841 35.8363 29.1157 35.8363 30.2534C35.8363 32.5541 37.7081 34.426 40.009 34.426C42.3099 34.426 44.1817 32.5542 44.1817 30.2534C44.1817 29.1157 43.2971 27.5841 42.3605 25.9625ZM40.009 33.1143C38.4315 33.1143 37.1481 31.8309 37.1481 30.2534C37.1481 29.4674 38.0221 27.9539 38.7934 26.6186C39.2237 25.8735 39.6656 25.1085 40.0091 24.394C40.3527 25.1085 40.7944 25.8734 41.2248 26.6185C41.9961 27.9539 42.8702 29.4673 42.8702 30.2534C42.8701 31.831 41.5866 33.1143 40.009 33.1143Z" fill="black"/>
</g>
<defs>
<clipPath id="clip0">
<rect width="46" height="46" fill="white"/>
</clipPath>
</defs>
</svg>
