<svg width="40" height="40" viewBox="0 0 40 40" fill="none" xmlns="http://www.w3.org/2000/svg">
<g opacity="0.5" clip-path="url(#clip0)">
<path d="M30.5313 14.6862C30.4623 14.3742 30.154 14.177 29.8415 14.2461C29.5295 14.3151 29.3325 14.6239 29.4015 14.936C29.5416 15.5699 29.6127 16.2231 29.6127 16.8774C29.6127 18.9034 28.9467 20.8276 27.6869 22.4419C25.7456 24.9292 24.6297 27.9306 24.4541 31.1312H23.9387H23.4103V29.9071C23.4103 29.5646 23.1972 29.2715 22.8969 29.1518L23.9788 21.1041C24.012 20.856 23.9086 20.6081 23.709 20.4574C23.5874 20.3655 23.4425 20.317 23.2901 20.317C23.1934 20.317 23.0995 20.3367 23.012 20.3751L21.6629 20.9646L20.2725 20.3724C20.0841 20.2924 19.8631 20.3008 19.6825 20.3941L18.5298 20.9878L16.9694 20.3668C16.7441 20.2763 16.4761 20.3142 16.2837 20.464C16.0902 20.6149 15.99 20.86 16.0225 21.1043L16.4575 24.3399C16.5002 24.6567 16.7918 24.8785 17.108 24.8363C17.4248 24.7937 17.647 24.5024 17.6045 24.1857L17.2748 21.7337L18.3466 22.1603C18.5021 22.2221 18.6768 22.2136 18.8255 22.137L20.0194 21.5221L21.4392 22.1268C21.5858 22.1892 21.7516 22.1885 21.8976 22.1247L22.7225 21.7642L21.737 29.0938H18.2641L17.9731 26.9296C17.9305 26.6128 17.6393 26.391 17.3226 26.4332C17.0059 26.4758 16.7836 26.7671 16.8262 27.0837L17.1042 29.1518C16.8039 29.2715 16.5908 29.5646 16.5908 29.9071V31.1312H16.0625H15.5486C15.379 27.9987 14.2404 24.9688 12.2501 22.3585C11.0386 20.7696 10.3949 18.8844 10.3885 16.9066C10.3723 11.817 14.653 7.64697 19.9309 7.61103C19.9541 7.61088 19.9768 7.6108 19.9998 7.6108C23.5402 7.6108 26.7791 9.4726 28.4644 12.4815C28.6205 12.7603 28.9732 12.8599 29.252 12.7035C29.5308 12.5474 29.6302 12.1948 29.4741 11.916C27.584 8.54143 23.9591 6.45361 19.9999 6.45361C19.9744 6.45361 19.9487 6.45369 19.9231 6.45385C14.0094 6.49416 9.21305 11.1849 9.23141 16.9103C9.23867 19.1424 9.9643 21.269 11.3299 23.0601C13.2104 25.5265 14.2721 28.3908 14.4004 31.3435C14.4236 31.8734 14.863 32.2884 15.4009 32.2884H15.484V37.0843C15.484 38.1255 16.1084 39.0485 17.0749 39.4357C18.0095 39.8103 18.9937 40.0001 20.0005 40.0001C21.0073 40.0001 21.9916 39.8103 22.9262 39.4357C23.8927 39.0485 24.5172 38.1254 24.5172 37.0843V32.2884H24.6017C25.1388 32.2884 25.5782 31.8744 25.602 31.3459C25.7372 28.3256 26.7736 25.4928 28.5989 23.1538C30.0191 21.3342 30.7697 19.1638 30.7697 16.8774C30.7698 16.1392 30.6895 15.402 30.5313 14.6862ZM17.748 30.251H22.2532V31.1312H17.748V30.251ZM16.6411 32.2884H23.3601V33.4814H16.6411V32.2884ZM16.6411 34.6386H23.3601V35.4229H16.6411V34.6386ZM23.3602 37.0843C23.3601 37.6499 23.0209 38.1513 22.4959 38.3617C21.6988 38.681 20.8593 38.843 20.0006 38.843C19.142 38.843 18.3024 38.681 17.5054 38.3617C16.9804 38.1513 16.6412 37.6499 16.6412 37.0843V36.5801H23.3602V37.0843Z" fill="black"/>
<path d="M38.1389 18.1389H34.5164C34.1968 18.1389 33.9378 18.398 33.9378 18.7175C33.9378 19.037 34.1968 19.2961 34.5164 19.2961H38.1389C38.4585 19.2961 38.7175 19.037 38.7175 18.7175C38.7175 18.398 38.4584 18.1389 38.1389 18.1389Z" fill="black"/>
<path d="M5.48364 18.1389H1.86106C1.54146 18.1389 1.28247 18.398 1.28247 18.7175C1.28247 19.037 1.54146 19.2961 1.86106 19.2961H5.48364C5.80325 19.2961 6.06224 19.037 6.06224 18.7175C6.06224 18.398 5.80325 18.1389 5.48364 18.1389Z" fill="black"/>
<path d="M33.2353 31.1345L30.6737 28.573C30.4477 28.3471 30.0815 28.3471 29.8555 28.573C29.6295 28.799 29.6295 29.1653 29.8555 29.3912L32.417 31.9527C32.53 32.0657 32.6781 32.1222 32.8262 32.1222C32.9742 32.1222 33.1223 32.0657 33.2353 31.9527C33.4612 31.7268 33.4612 31.3604 33.2353 31.1345Z" fill="black"/>
<path d="M10.1446 8.04376L7.58307 5.4822C7.35706 5.25626 6.99081 5.25626 6.76479 5.4822C6.53885 5.70813 6.53885 6.07446 6.76479 6.3004L9.32627 8.86196C9.43924 8.97493 9.58729 9.03142 9.73541 9.03142C9.88346 9.03142 10.0316 8.97493 10.1446 8.86196C10.3705 8.63603 10.3705 8.2697 10.1446 8.04376Z" fill="black"/>
<path d="M33.2353 5.48227C33.0094 5.25625 32.6431 5.25625 32.417 5.48219L29.8555 8.04375C29.6295 8.26969 29.6295 8.63602 29.8555 8.86195C29.9684 8.97492 30.1165 9.03141 30.2646 9.03141C30.4126 9.03141 30.5608 8.97492 30.6737 8.86195L33.2353 6.30047C33.4612 6.07453 33.4612 5.7082 33.2353 5.48227Z" fill="black"/>
<path d="M10.1446 28.573C9.91854 28.3471 9.55229 28.3471 9.32627 28.573L6.76479 31.1345C6.53885 31.3604 6.53885 31.7268 6.76479 31.9527C6.87776 32.0657 7.02588 32.1222 7.17393 32.1222C7.32198 32.1222 7.4701 32.0657 7.58307 31.9527L10.1446 29.3912C10.3705 29.1653 10.3705 28.799 10.1446 28.573Z" fill="black"/>
<path d="M20 0C19.6804 0 19.4214 0.259062 19.4214 0.578594V4.20109C19.4215 4.52063 19.6805 4.77969 20 4.77969C20.3196 4.77969 20.5786 4.52063 20.5786 4.20109V0.578594C20.5786 0.259062 20.3196 0 20 0Z" fill="black"/>
</g>
<defs>
<clipPath id="clip0">
<rect width="40" height="40" fill="white"/>
</clipPath>
</defs>
</svg>
