<svg width="105" height="580" viewBox="0 0 105 580" fill="none" xmlns="http://www.w3.org/2000/svg">
<path opacity="0.32" d="M79.45 93.85L79.45 61.75L-2 61.75L-2 32.5L79.45 32.5L79.45 0.249997L103 0.249998L103 93.85L79.45 93.85ZM79.3 102.78L79.3 131.13L36.7 131.13L79.3 165.18L79.3 191.43L-2.00001 191.43L-2.00001 162.93L40.75 162.93L-2.00001 129.18L-2 102.78L79.3 102.78ZM79.3 293.092L-2.00001 293.092L-2.00001 264.742L56.65 264.742L56.65 237.442L-2.00001 237.442L-2.00001 209.092L79.3 209.092L79.3 293.092ZM54.25 492.513C54.25 486.913 55.3 481.863 57.4 477.362C59.6 472.963 62.6 469.463 66.4 466.863C70.2 464.363 74.5 463.113 79.3 463.113C84.1 463.113 88.4 464.363 92.2 466.863C96 469.463 98.95 472.963 101.05 477.363C103.25 481.863 104.35 486.913 104.35 492.513C104.35 498.213 103.25 503.263 101.05 507.663C98.95 512.163 96 515.663 92.2 518.163C88.4 520.663 84.1 521.912 79.3 521.912C74.5 521.912 70.2 520.662 66.4 518.163C62.6 515.663 59.6 512.163 57.4 507.663C55.3 503.263 54.25 498.213 54.25 492.513ZM103 424.863L103 453.963L-2.00002 453.963L-2.00002 429.512L53.95 383.162L-2.00002 383.162L-2.00002 354.062L103 354.062L103 378.512L47.05 424.863L103 424.863ZM89.95 492.513C89.95 489.513 89 487.063 87.1 485.163C85.3 483.263 82.7 482.313 79.3 482.313C76 482.313 73.4 483.263 71.5 485.163C69.6 487.063 68.65 489.513 68.65 492.513C68.65 495.512 69.6 497.962 71.5 499.863C73.4 501.763 76 502.713 79.3 502.713C82.7 502.713 85.3 501.763 87.1 499.863C89 497.963 89.95 495.512 89.95 492.513ZM45.55 466.113L45.55 518.913L28.75 518.912L28.75 466.112L45.55 466.113ZM103 579.223L-2.00003 579.223L-2.00002 549.523L80.05 549.523L80.05 530.023L103 530.023L103 579.223Z" fill="white"/>
</svg>
